<svg width="15" height="15" viewBox="0 0 15 15" fill="none" xmlns="http://www.w3.org/2000/svg">
<path d="M11 3.5H12H11ZM4.5 0.5H10.5C11.5609 0.5 12.5783 0.921427 13.3284 1.67157C14.0786 2.42172 14.5 3.43913 14.5 4.5V10.5C14.5 11.5609 14.0786 12.5783 13.3284 13.3284C12.5783 14.0786 11.5609 14.5 10.5 14.5H4.5C3.43913 14.5 2.42172 14.0786 1.67157 13.3284C0.921427 12.5783 0.5 11.5609 0.5 10.5V4.5C0.5 3.43913 0.921427 2.42172 1.67157 1.67157C2.42172 0.921427 3.43913 0.5 4.5 0.5V0.5ZM7.5 10.5C6.70435 10.5 5.94129 10.1839 5.37868 9.62132C4.81607 9.05871 4.5 8.29565 4.5 7.5C4.5 6.70435 4.81607 5.94129 5.37868 5.37868C5.94129 4.81607 6.70435 4.5 7.5 4.5C8.29565 4.5 9.05871 4.81607 9.62132 5.37868C10.1839 5.94129 10.5 6.70435 10.5 7.5C10.5 8.29565 10.1839 9.05871 9.62132 9.62132C9.05871 10.1839 8.29565 10.5 7.5 10.5Z" stroke="white"/>
</svg>
