<?xml version="1.0" encoding="utf-8"?>
<!-- Generator: Adobe Illustrator 25.2.1, SVG Export Plug-In . SVG Version: 6.00 Build 0)  -->
<svg version="1.1" id="Layer_1" xmlns="http://www.w3.org/2000/svg" xmlns:xlink="http://www.w3.org/1999/xlink" x="0px" y="0px"
	 viewBox="0 0 612 792" style="enable-background:new 0 0 612 792;" xml:space="preserve">
<style type="text/css">
	.st0{fill:#FFFFFF;}
	.st1{fill:#163760;}
	.st2{fill:#16375F;}
	.st3{fill:none;stroke:#ED1C24;stroke-width:3.5445;stroke-miterlimit:10;}
	.st4{fill:#173861;}
</style>
<g id="YCzCi6.tif">
	
		<image style="overflow:visible;" width="730" height="724" id="Layer_0_1_" xlink:href="4CF4C4C52942AF0D.png"  transform="matrix(0.3329 0 0 0.3329 -309 286)">
	</image>
</g>
<path class="st0" d="M233.7,452.1"/>
<g>
	<path class="st1" d="M479,356.8c0.2,11.9-0.7,23.8-2.8,35.6c-2.1,11.8-5.3,23.4-9.6,34.6c-8.6,22.4-21.8,43.2-38.5,60.7
		c-8.4,8.7-17.6,16.7-27.6,23.6c-10,6.9-20.7,12.9-31.9,17.7c-22.4,9.6-46.9,14.4-71.3,14.3c-12.2-0.1-24.4-1.4-36.3-3.8
		c-11.9-2.5-23.6-6.2-34.8-10.9c-22.4-9.6-42.8-23.6-59.6-41.1c-16.8-17.4-30-38.1-38.8-60.5c-8.7-22.4-12.8-46.4-12.3-70.2
		c0.6-23.8,5.8-47.4,15.4-68.9c9.5-21.6,23.2-41.2,40.1-57.4c16.8-16.2,36.8-29.1,58.4-37.8c21.6-8.7,44.8-13,68-12.9
		c23.2,0.1,46.3,4.6,67.8,13.3c10.8,4.3,21.1,9.6,30.9,16c9.8,6.3,19,13.5,27.5,21.6c16.9,16.1,30.8,35.6,40.4,57.2
		c4.8,10.8,8.5,22.1,11.1,33.7C477.4,333,478.8,344.9,479,356.8z M465,356.8c0.2-11-0.6-22-2.5-32.9c-1.9-10.9-4.8-21.6-8.8-31.9
		c-7.9-20.7-20-39.9-35.4-56.2c-7.7-8.1-16.3-15.5-25.5-21.9c-9.3-6.4-19.1-11.9-29.5-16.4c-20.7-8.9-43.4-13.4-66-13.3
		c-11.3,0.1-22.6,1.3-33.6,3.6c-11,2.3-21.8,5.7-32.2,10.1c-20.7,8.9-39.5,21.9-55,38c-15.5,16.1-27.7,35.3-35.7,56
		c-8,20.7-11.8,42.9-11.2,64.8c0.6,22,5.5,43.7,14.3,63.6c8.8,19.9,21.5,37.9,37,52.9c15.5,14.9,33.9,26.8,53.8,34.7
		c19.9,7.9,41.2,12,62.6,11.8c21.4-0.1,42.6-4.3,62.4-12.2c9.9-4,19.5-8.8,28.5-14.7c9-5.8,17.5-12.4,25.3-19.8
		c15.7-14.8,28.5-32.8,37.3-52.6c4.4-9.9,7.9-20.3,10.3-31C463.4,378.7,464.7,367.7,465,356.8z"/>
</g>
<path class="st2" d="M139.7,291c0,0,10.6,31.9,49.6,28.4c0,0,31.9,0,31.9,10.6c0.9,15.1-20.9,48.3,0,63.8c0,0,7.1,3.5-3.5,10.6
	h158.2l-5.8-7.1c0,0,18-27,7.1-42.5c0,0-17.7-31.9,7.1-35.4c0,0,63.8,3.5,67.3-28.4c0,0-88.6,10.6-102.8,31.9c0,0-9.9,12.3-2.3,22.6
	c1.5,2,2.5,4.4,3,6.9c0.8,4.5,1.5,10.8-0.7,13.1c-1.3,1.3-3,1.6-4.7,1.6c-3.1-0.1-5.9-1.7-7.9-4c-8.3-9.6-41.6-42.2-80.4-0.6
	c-2.4,2.6-6,3.9-9.3,3c-3.1-0.9-5.8-3.5-4-10.6c0,0,10.6-21.3,0-31.9C227.3,307.3,175.9,292.7,139.7,291z"/>
<path class="st3" d="M136.1,305.2"/>
<path class="st4" d="M155.6,328.2c0,0,3.5,24.8,42.5,17.7c0,0,8.9-5.3,5.3-12.4C203.5,333.5,164.5,333.5,155.6,328.2z"/>
<path class="st4" d="M168,358.3c0,0,0,17.7,28.4,14.2c0,0,3.5-3.5,3.5-10.6C199.9,361.9,196.4,354.8,168,358.3z"/>
<path class="st4" d="M180,385.9c0,0,12.9,11.4,16.4,11.4s0.9-11.4,0.9-11.4H180z"/>
<path class="st4" d="M438.2,327.2c0,0-3.5,24.8-42.5,17.7c0,0-8.9-5.3-5.3-12.4C390.4,332.5,429.4,332.5,438.2,327.2z"/>
<path class="st4" d="M425.8,357.3c0,0,0,17.7-28.4,14.2c0,0-3.5-3.5-3.5-10.6C393.9,360.8,397.5,353.8,425.8,357.3z"/>
<path class="st4" d="M413.9,384.9c0,0-12.9,11.4-16.4,11.4s-0.9-11.4-0.9-11.4H413.9z"/>
<path class="st1" d="M-115.5,231h35.2c0.3-0.6,0.9,18.3-17.6,18.4C-115.6,249.6-115.5,231-115.5,231z"/>
<path class="st1" d="M295.6,414.9v18.7c0,0-66.5-8.7-75.5-22.3l75.5,0.7V414.9z"/>
<path class="st1" d="M297.2,414.9v18.7c0,0,66.5-8.7,75.5-22.3l-75.5,0.7V414.9z"/>
</svg>
