<svg width="21" height="15" viewBox="0 0 21 15" fill="none" xmlns="http://www.w3.org/2000/svg">
<path d="M20.6074 2.01498C20.3449 1.19807 19.6886 0.614554 18.7697 0.381149C16.0131 0.147744 13.2566 -0.0856612 10.5 0.0310412C7.74343 0.0310412 4.98686 0.147744 2.23029 0.381149C1.4427 0.614554 0.655112 1.31477 0.392582 2.01498C-0.130861 5.65686 -0.130861 9.34315 0.392582 12.985C0.655112 13.8019 1.31144 14.3854 2.23029 14.6189C4.98686 14.8523 7.74343 15.0857 10.5 14.969C13.2566 14.969 16.0131 14.8523 18.7697 14.6189C19.6886 14.3854 20.3449 13.8019 20.6074 12.985C21.1309 9.34315 21.1309 5.65686 20.6074 2.01498ZM7.8747 11.0011V3.99893L14.7005 7.5L7.8747 11.0011Z" fill="white"/>
</svg>
