<svg width="50" height="49" viewBox="0 0 50 49" fill="none" xmlns="http://www.w3.org/2000/svg">
<path d="M0 4.59375C0 3.37541 0.49386 2.20697 1.37294 1.34548C2.25201 0.483983 3.4443 0 4.6875 0L45.3125 0C46.5557 0 47.748 0.483983 48.6271 1.34548C49.5061 2.20697 50 3.37541 50 4.59375V44.4062C50 45.6246 49.5061 46.793 48.6271 47.6545C47.748 48.516 46.5557 49 45.3125 49H4.6875C3.4443 49 2.25201 48.516 1.37294 47.6545C0.49386 46.793 0 45.6246 0 44.4062L0 4.59375ZM4.6875 3.0625C4.2731 3.0625 3.87567 3.22383 3.58265 3.51099C3.28962 3.79816 3.125 4.18764 3.125 4.59375V15.3125H15.625V3.0625H4.6875ZM15.625 18.375H3.125V30.625H15.625V18.375ZM18.75 30.625H31.25V18.375H18.75V30.625ZM15.625 33.6875H3.125V44.4062C3.125 44.8124 3.28962 45.2018 3.58265 45.489C3.87567 45.7762 4.2731 45.9375 4.6875 45.9375H15.625V33.6875ZM18.75 33.6875V45.9375H31.25V33.6875H18.75ZM34.375 33.6875V45.9375H45.3125C45.7269 45.9375 46.1243 45.7762 46.4174 45.489C46.7104 45.2018 46.875 44.8124 46.875 44.4062V33.6875H34.375ZM34.375 30.625H46.875V18.375H34.375V30.625ZM34.375 15.3125H46.875V4.59375C46.875 4.18764 46.7104 3.79816 46.4174 3.51099C46.1243 3.22383 45.7269 3.0625 45.3125 3.0625H34.375V15.3125ZM31.25 15.3125V3.0625H18.75V15.3125H31.25Z" fill="#013662"/>
</svg>
