<svg width="21" height="21" viewBox="0 0 21 21" fill="none" xmlns="http://www.w3.org/2000/svg">
<g clip-path="url(#clip0)">
<path d="M10.5004 0.427795C5.19839 0.427795 0.900391 4.7258 0.900391 10.0278C0.900391 15.3298 5.19839 19.6278 10.5004 19.6278C15.8024 19.6278 20.1004 15.3298 20.1004 10.0278C20.1004 4.7258 15.8024 0.427795 10.5004 0.427795ZM12.7744 7.0618H11.3314C11.1604 7.0618 10.9704 7.2868 10.9704 7.5858V8.6278H12.7754L12.5024 10.1138H10.9704V14.5748H9.26739V10.1138H7.72239V8.6278H9.26739V7.7538C9.26739 6.49979 10.1374 5.4808 11.3314 5.4808H12.7744V7.0618Z" fill="#4064AD"/>
</g>
<defs>
<clipPath id="clip0">
<rect width="20" height="20" fill="white" transform="translate(0.5 0.027771)"/>
</clipPath>
</defs>
</svg>
