<svg width="20" height="21" viewBox="0 0 20 21" fill="none" xmlns="http://www.w3.org/2000/svg">
<g clip-path="url(#clip0)">
<path d="M10.0032 0.527771C5.88907 0.527771 4.68583 0.531864 4.45195 0.550573C3.60765 0.618248 3.08228 0.746436 2.50991 1.02123C2.06882 1.23244 1.72094 1.47727 1.37761 1.82047C0.752348 2.44635 0.373399 3.21635 0.23622 4.13165C0.169525 4.57599 0.150123 4.66661 0.146181 6.93628C0.144666 7.69284 0.146181 8.68852 0.146181 10.024C0.146181 13.9881 0.150729 15.1472 0.170434 15.3723C0.238645 16.1645 0.367487 16.6629 0.64033 17.2081C1.16176 18.2517 2.15764 19.0352 3.33087 19.3275C3.7371 19.4284 4.18577 19.4839 4.76178 19.5102C5.00582 19.5205 7.49324 19.5278 9.98217 19.5278C12.4711 19.5278 14.96 19.5249 15.198 19.5132C15.865 19.4829 16.2523 19.4328 16.6805 19.3261C17.2622 19.1822 17.8044 18.9176 18.2691 18.5508C18.7338 18.184 19.1098 17.7238 19.371 17.2023C19.6385 16.6702 19.7742 16.1528 19.8356 15.4019C19.8489 15.2382 19.8545 12.6281 19.8545 10.0216C19.8545 7.41454 19.8485 4.80927 19.8351 4.64557C19.773 3.88258 19.6373 3.36953 19.3612 2.82726C19.1345 2.38335 18.8829 2.05185 18.5176 1.71289C17.8658 1.11244 17.0685 0.74702 16.1183 0.614886C15.6579 0.550719 15.5662 0.531717 13.2107 0.527771H10.0032Z" fill="url(#paint0_radial)"/>
<path d="M10.0032 0.527771C5.88907 0.527771 4.68583 0.531864 4.45195 0.550573C3.60765 0.618248 3.08228 0.746436 2.50991 1.02123C2.06882 1.23244 1.72094 1.47727 1.37761 1.82047C0.752348 2.44635 0.373399 3.21635 0.23622 4.13165C0.169525 4.57599 0.150123 4.66661 0.146181 6.93628C0.144666 7.69284 0.146181 8.68852 0.146181 10.024C0.146181 13.9881 0.150729 15.1472 0.170434 15.3723C0.238645 16.1645 0.367487 16.6629 0.64033 17.2081C1.16176 18.2517 2.15764 19.0352 3.33087 19.3275C3.7371 19.4284 4.18577 19.4839 4.76178 19.5102C5.00582 19.5205 7.49324 19.5278 9.98217 19.5278C12.4711 19.5278 14.96 19.5249 15.198 19.5132C15.865 19.4829 16.2523 19.4328 16.6805 19.3261C17.2622 19.1822 17.8044 18.9176 18.2691 18.5508C18.7338 18.184 19.1098 17.7238 19.371 17.2023C19.6385 16.6702 19.7742 16.1528 19.8356 15.4019C19.8489 15.2382 19.8545 12.6281 19.8545 10.0216C19.8545 7.41454 19.8485 4.80927 19.8351 4.64557C19.773 3.88258 19.6373 3.36953 19.3612 2.82726C19.1345 2.38335 18.8829 2.05185 18.5176 1.71289C17.8658 1.11244 17.0685 0.74702 16.1183 0.614886C15.6579 0.550719 15.5662 0.531717 13.2107 0.527771H10.0032Z" fill="url(#paint1_radial)"/>
<path d="M9.99897 3.01257C8.02296 3.01257 7.77498 3.0209 6.99889 3.05496C6.22431 3.08916 5.6956 3.20741 5.23298 3.38091C4.75444 3.56011 4.34851 3.79982 3.94409 4.18994C3.53937 4.57991 3.29078 4.97135 3.10434 5.43265C2.92395 5.87889 2.80117 6.38887 2.76631 7.13549C2.73175 7.88386 2.72266 8.12313 2.72266 10.0286C2.72266 11.934 2.73145 12.1724 2.76661 12.9207C2.80224 13.6677 2.92486 14.1775 3.10464 14.6236C3.29063 15.085 3.53922 15.4765 3.94379 15.8664C4.34805 16.2567 4.75398 16.497 5.23222 16.6762C5.69515 16.8497 6.22401 16.9679 6.99843 17.0021C7.77452 17.0362 8.02236 17.0445 9.99821 17.0445C11.9744 17.0445 12.2216 17.0362 12.9977 17.0021C13.7723 16.9679 14.3016 16.8497 14.7645 16.6762C15.2429 16.497 15.6482 16.2567 16.0525 15.8664C16.4572 15.4765 16.7058 15.085 16.8922 14.6237C17.0711 14.1775 17.1939 13.6675 17.2303 12.9209C17.2651 12.1725 17.2742 11.934 17.2742 10.0286C17.2742 8.12313 17.2651 7.884 17.2303 7.13563C17.1939 6.38872 17.0711 5.87889 16.8922 5.43279C16.7058 4.97135 16.4572 4.57991 16.0525 4.18994C15.6478 3.79968 15.243 3.55997 14.764 3.38091C14.3002 3.20741 13.7712 3.08916 12.9966 3.05496C12.2205 3.0209 11.9735 3.01257 9.99684 3.01257H9.99897ZM9.34626 4.27691C9.53998 4.27662 9.75613 4.27691 9.99897 4.27691C11.9416 4.27691 12.1719 4.28364 12.939 4.31725C13.6484 4.34853 14.0334 4.46283 14.2899 4.55887C14.6294 4.68603 14.8715 4.83804 15.126 5.0836C15.3807 5.32916 15.5383 5.56303 15.6705 5.89044C15.7701 6.13746 15.8888 6.50872 15.9211 7.19278C15.9559 7.93238 15.9635 8.15456 15.9635 10.0269C15.9635 11.8993 15.9559 12.1215 15.9211 12.8611C15.8886 13.5452 15.7701 13.9164 15.6705 14.1635C15.5386 14.4909 15.3807 14.724 15.126 14.9694C14.8714 15.215 14.6296 15.367 14.2899 15.4941C14.0337 15.5906 13.6484 15.7046 12.939 15.7359C12.172 15.7695 11.9416 15.7768 9.99897 15.7768C8.05616 15.7768 7.82591 15.7695 7.05891 15.7359C6.34952 15.7043 5.9645 15.59 5.70788 15.494C5.36834 15.3668 5.12581 15.2148 4.87116 14.9693C4.6165 14.7237 4.45886 14.4904 4.32668 14.1629C4.22709 13.9158 4.1084 13.5446 4.07612 12.8605C4.04125 12.1209 4.03428 11.8988 4.03428 10.0252C4.03428 8.15163 4.04125 7.93063 4.07612 7.19103C4.10856 6.50697 4.22709 6.13571 4.32668 5.88839C4.45855 5.56098 4.6165 5.32712 4.87116 5.08156C5.12581 4.836 5.36834 4.68398 5.70788 4.55653C5.96435 4.46006 6.34952 4.34605 7.05891 4.31462C7.73011 4.28539 7.99022 4.27662 9.34626 4.27516V4.27691ZM13.8828 5.44186C13.7101 5.44186 13.5412 5.49124 13.3977 5.58377C13.2541 5.67629 13.1422 5.8078 13.0761 5.96165C13.01 6.11551 12.9927 6.28481 13.0265 6.44813C13.0602 6.61146 13.1434 6.76147 13.2655 6.8792C13.3876 6.99694 13.5432 7.0771 13.7126 7.10955C13.882 7.142 14.0576 7.12529 14.2171 7.06152C14.3766 6.99775 14.513 6.8898 14.6089 6.75131C14.7048 6.61281 14.7559 6.45001 14.7559 6.28348C14.7559 5.81867 14.3648 5.44156 13.8828 5.44156V5.44186ZM9.99897 6.42556C7.9355 6.42556 6.26251 8.03879 6.26251 10.0286C6.26251 12.0183 7.9355 13.6308 9.99897 13.6308C12.0624 13.6308 13.735 12.0183 13.735 10.0286C13.735 8.03879 12.0623 6.42556 9.99881 6.42556H9.99897ZM9.99897 7.68989C11.3383 7.68989 12.4243 8.73688 12.4243 10.0286C12.4243 11.3201 11.3383 12.3672 9.99897 12.3672C8.65945 12.3672 7.57368 11.3201 7.57368 10.0286C7.57368 8.73688 8.65945 7.68989 9.99897 7.68989Z" fill="white"/>
</g>
<defs>
<radialGradient id="paint0_radial" cx="0" cy="0" r="1" gradientUnits="userSpaceOnUse" gradientTransform="translate(5.38074 20.9912) rotate(-90) scale(18.8304 18.1673)">
<stop stop-color="#FFDD55"/>
<stop offset="0.1" stop-color="#FFDD55"/>
<stop offset="0.5" stop-color="#FF543E"/>
<stop offset="1" stop-color="#C837AB"/>
</radialGradient>
<radialGradient id="paint1_radial" cx="0" cy="0" r="1" gradientUnits="userSpaceOnUse" gradientTransform="translate(-3.15586 1.8965) rotate(78.2697) scale(8.42959 35.9385)">
<stop stop-color="#3771C8"/>
<stop offset="0.128" stop-color="#3771C8"/>
<stop offset="1" stop-color="#6600FF" stop-opacity="0"/>
</radialGradient>
<clipPath id="clip0">
<rect width="19" height="20.0556" fill="white" transform="translate(0.5)"/>
</clipPath>
</defs>
</svg>
