<svg width="121" height="114" viewBox="0 0 121 114" fill="none" xmlns="http://www.w3.org/2000/svg">
<g clip-path="url(#clip0)">
<path d="M50.8089 56.2594C50.7327 56.2784 50.585 56.3499 50.4801 56.4214C50.2561 56.5644 49.9654 56.6978 49.7509 56.755C49.5222 56.817 49.384 56.898 49.303 57.0171C49.2267 57.1363 49.1648 57.3936 49.1648 57.608C49.1648 57.751 49.2077 57.8035 49.241 57.7081C49.2696 57.6128 49.3173 57.6414 49.3173 57.751C49.3173 57.8082 49.3602 58.0703 49.4078 58.3277C49.5174 58.89 49.5079 58.9853 49.3649 59.1474C49.2172 59.3142 49.2219 59.3857 49.4078 59.6382C49.4888 59.7526 49.5746 59.9003 49.5889 59.967C49.608 60.0337 49.6509 60.1529 49.6938 60.2291C49.7462 60.3387 49.7652 60.4198 49.7652 60.5627C49.7652 60.6819 49.7795 60.7677 49.8034 60.7867C49.8224 60.801 49.913 60.8296 50.0035 60.8439L50.1703 60.8678L50.1798 60.9916C50.1941 61.1394 50.1179 61.3062 50.0178 61.3729C49.9797 61.3967 49.6842 61.5159 49.3697 61.635C48.6357 61.9066 48.488 61.9782 48.2831 62.1878C48.102 62.3689 47.94 62.6739 47.7017 63.2744C47.3871 64.0607 46.9773 65.3665 46.8772 65.9002C46.82 66.21 46.8534 66.4149 46.9868 66.596C47.0345 66.6628 47.0726 66.7295 47.0726 66.7438C47.0726 66.7581 47.0297 66.7819 46.9773 66.7962C46.9201 66.8153 46.8629 66.8581 46.8438 66.901C46.7914 67.0106 46.129 70.032 45.9765 70.8422C45.9145 71.1615 45.9097 71.1806 45.843 71.2187C45.7906 71.2473 45.7763 71.233 45.7048 71.1234C45.4665 70.7469 45.3903 70.5563 45.1711 69.7938C44.5134 67.5015 43.7604 65.2426 43.3172 64.2418C43.0646 63.6747 42.8406 63.4888 42.121 63.2649C41.592 63.0981 41.5205 62.9884 41.6349 62.5166C41.7111 62.2116 41.6873 61.9924 41.5157 61.1203C41.3061 60.0719 41.1583 59.5763 40.8581 58.971C40.6722 58.585 40.4149 58.2991 40.1384 58.1609C39.9431 58.0608 39.4522 57.9512 39.2282 57.9512C39.0376 57.9512 38.8517 58.0417 38.4895 58.3181C37.8795 58.7756 37.7413 58.971 37.6889 59.4857C37.6746 59.6573 37.6603 60.3197 37.665 60.9631C37.6793 62.8741 37.6793 62.7168 37.6078 62.8836C37.4744 63.1791 37.2742 63.3077 36.6595 63.4793C36.1876 63.6127 35.9636 63.7271 35.7635 63.9273C35.5395 64.1513 35.4918 64.3038 35.387 65.1282C35.1439 67.044 35.0296 68.7215 35.0296 70.3085C35.0296 71.071 35.001 71.476 34.8914 72.1194C34.8294 72.4911 34.8104 72.7246 34.8008 73.287C34.7818 74.1591 34.7865 74.1829 35.0486 74.4355C35.1535 74.5403 35.2393 74.6404 35.2393 74.6642C35.2393 74.6881 35.2011 74.831 35.1487 74.9835C35.0772 75.2075 35.0582 75.3171 35.0582 75.5268C35.0582 75.6698 35.0439 75.8366 35.02 75.8938C34.9438 76.1273 34.5959 76.5228 34.3242 76.6944C34.0669 76.8612 33.8429 76.8135 33.5284 76.5228C33.4378 76.4466 33.3234 76.3513 33.2758 76.3179C33.1328 76.2178 32.8516 76.1368 32.5704 76.113C32.2702 76.0891 32.1129 76.0129 31.9938 75.8366C31.7698 75.5078 31.8079 75.2838 32.1177 75.1265C32.375 74.9931 32.4132 74.9168 32.4847 74.4069C32.5037 74.2592 32.5228 73.9351 32.5228 73.6873C32.5275 73.1154 32.4942 73.0249 32.1558 72.7056C31.8937 72.4577 31.7364 72.3434 31.4791 72.2147C31.0311 71.9907 30.7261 71.9621 30.4116 72.1051C30.0398 72.2814 29.3059 72.9439 29.1772 73.2203C29.0724 73.4442 29.0724 73.7492 29.1725 74.1686C29.3488 74.893 29.5585 75.2361 29.9779 75.4839C30.1352 75.5745 30.2067 75.6841 30.2067 75.8414C30.2067 75.9843 30.1542 76.0272 29.8826 76.0891C29.63 76.1416 29.5204 76.1892 29.2869 76.3513C29.2011 76.4084 29.0772 76.4656 29.0152 76.4752C28.8722 76.499 28.7293 76.5848 28.6625 76.6801C28.6339 76.723 28.5291 76.9517 28.4338 77.1852C28.3337 77.4235 28.1383 77.8524 28.0001 78.1384C27.5712 79.0295 27.838 79.549 28 79.8588C28.2097 80.2591 28.2095 81.3651 28.5 81.5C28.6334 81.562 29.5 82.5 29.5 82C29.7473 82.1567 29.6191 81.9952 29.5 82C29.5667 82.0524 29.2515 82 29.2535 81.927C29.2154 83.2948 29.2249 83.5569 29.3869 84.9246C29.4489 85.4202 29.4965 85.9588 29.4965 86.1208C29.4965 86.3877 29.487 86.4496 29.4012 86.6736C29.2106 87.1788 29.2249 87.5171 29.4775 88.3511C29.6919 89.0707 29.7444 89.3471 29.7205 89.6521C29.6919 90.0429 29.4489 90 31.7936 90C33.333 90 33.8334 89.9905 33.862 89.9619C33.9096 89.9142 33.9048 89.7808 33.8572 89.6617C33.8095 89.5473 33.5141 89.2613 33.3997 89.2184C33.3568 89.1994 33.2424 89.1756 33.1519 89.1565C33.0613 89.1422 32.9374 89.0945 32.8755 89.0564C32.4847 88.7991 32.3941 88.1938 32.7182 88.0604C32.9803 87.9556 33.0804 87.8936 33.109 87.8269C33.1519 87.7268 33.1995 86.0398 33.2376 82.9421C33.2758 79.6872 33.3044 78.6483 33.3473 78.5673C33.3663 78.5244 33.5045 78.4481 33.7047 78.3624C34.5864 77.9811 35.1106 77.5856 35.5252 76.9994C35.8016 76.6086 35.8969 76.5181 36.0447 76.5181C36.2067 76.5181 36.3163 76.5705 36.3401 76.661C36.364 76.7611 36.3116 77.0661 36.1543 77.6999C35.9827 78.4196 35.9065 78.8008 35.8826 79.101C35.8683 79.3107 35.8445 79.3917 35.7397 79.6062L35.6158 79.8588V80.24C35.6158 80.7595 35.5872 80.7356 36.2496 80.7785C36.526 80.7976 36.9978 80.8166 37.2838 80.8309C37.6269 80.8452 37.8271 80.8691 37.8509 80.8881C37.8795 80.9167 37.8652 81.0692 37.7985 81.5601C37.6889 82.3607 37.6841 83.0088 37.7794 83.7999C37.8175 84.0859 37.8795 84.7388 37.9224 85.2535C38.0082 86.3162 38.0653 86.7832 38.1511 87.2884C38.2321 87.7363 38.2369 88.2081 38.1654 88.4464C38.1368 88.537 38.0653 88.6942 38.0034 88.7895C37.8318 89.0755 37.7937 89.166 37.7556 89.39C37.7032 89.7331 37.7127 89.838 37.7985 89.9285L37.87 90L40.1337 89.9953L42.3974 89.9857L42.4641 89.919C42.5547 89.8285 42.5737 89.5949 42.507 89.452C42.4689 89.3662 42.426 89.3328 42.3164 89.2947C42.0781 89.2184 41.9971 89.1136 41.9065 88.7705C41.8684 88.637 41.8541 88.4703 41.8541 88.232C41.8541 87.8555 41.8732 87.7459 42.4308 85.1391C42.5785 84.448 42.7215 83.7332 42.7501 83.5378C42.8406 82.8611 42.793 81.7269 42.6405 80.9596C42.6119 80.831 42.6166 80.7928 42.65 80.7595C42.6738 80.7356 42.893 80.6832 43.1361 80.6403C44.4705 80.4116 44.9757 80.2638 45.0853 80.0542C45.1711 79.8921 45.1377 79.4442 44.9947 78.858C44.909 78.4863 44.4514 77.0566 43.5316 74.2592C43.1647 73.1392 42.8454 72.148 42.8263 72.0574C42.8025 71.9478 42.7977 71.7572 42.812 71.457L42.8311 71.0233L42.6929 70.6039C42.4212 69.7699 42.2878 69.2553 42.1639 68.5833C42.0733 68.0782 42.0638 67.2489 42.1448 66.8915C42.1782 66.7581 42.2115 66.6389 42.2258 66.6294C42.2401 66.6151 42.2687 66.6771 42.2973 66.7628C42.569 67.6111 43.3696 70.013 43.4983 70.3609C43.7175 70.9518 43.8128 71.1281 44.0988 71.4284C44.5372 71.8906 44.7088 72.1575 44.9328 72.7532C45.0758 73.1249 45.2092 73.4061 45.3283 73.5824C45.4284 73.7397 45.4856 73.9256 45.5333 74.2592C45.5571 74.426 45.5762 74.5737 45.5762 74.5927C45.5762 74.6118 45.6191 74.6785 45.6667 74.7357C45.7525 74.8263 45.7763 74.8406 45.905 74.8406C46.0861 74.8406 46.4102 74.6881 46.5627 74.526C46.6198 74.4641 46.7485 74.3592 46.8486 74.2973C47.1917 74.0638 47.2013 74.0447 47.1298 73.6635C47.0583 73.2631 47.0059 73.1059 46.882 72.9343C46.7247 72.7103 46.6866 72.5912 46.658 72.2671C46.6294 71.8192 46.7199 71.4903 46.9487 71.1996C47.125 70.9852 47.4014 70.5467 47.5492 70.2513C47.7875 69.7747 47.9686 69.2934 48.3832 67.9971C48.6691 67.1107 48.7978 66.7485 48.8454 66.6961C48.9312 66.6056 49.0075 66.6294 48.9884 66.7342C48.9789 66.7771 48.998 66.9153 49.0266 67.044C49.0742 67.2441 49.079 67.3681 49.0694 67.9209C49.0361 69.6603 49.0456 69.9415 49.16 70.7802C49.303 71.781 49.3316 72.1194 49.3316 72.6293C49.3316 73.0916 49.3125 73.2631 49.1743 73.9398C49.0885 74.3783 49.0837 74.445 49.0837 75.0645C49.0837 75.7079 49.0885 75.7413 49.222 76.5181C49.4173 77.6523 49.4364 77.862 49.6794 81.5792C49.8796 84.6768 49.8987 84.9056 49.9654 85.0295C49.9988 85.0962 50.0655 85.3392 50.1131 85.5775C50.2227 86.1017 50.218 86.1208 49.9416 86.2399C49.6747 86.3495 49.6413 86.4305 49.7128 86.7594C49.7652 87.0167 49.7652 87.031 49.5841 87.2645C49.5317 87.3313 49.4412 87.5171 49.384 87.6696C49.322 87.8269 49.2362 87.9889 49.1934 88.0318C49.1028 88.1224 48.9551 88.1986 48.8502 88.1986C48.7358 88.1986 48.4832 88.332 48.3927 88.4417C48.0829 88.8086 48.1449 89.247 48.5262 89.4377L48.6834 89.5139H50.0274C51.4857 89.5139 51.5047 89.5092 51.6334 89.3471C51.6954 89.2709 51.7001 89.228 51.7001 88.923C51.7001 88.6799 51.6858 88.5465 51.6525 88.4607C51.5858 88.2939 51.6096 88.1986 51.805 87.8507C52.1004 87.3217 52.1052 87.3122 52.1052 86.3448C52.1052 85.8825 52.0861 84.672 52.0623 83.6474C52.0004 81.0931 52.0051 81.0645 52.3149 80.4688C52.5675 79.9827 52.6104 79.7539 52.6104 78.9152C52.6151 78.5339 52.6008 77.8858 52.5913 77.4712L52.5675 76.7182L52.6342 76.6372C52.6819 76.5848 52.7343 76.5562 52.801 76.5514C52.8916 76.5467 52.9058 76.5562 52.944 76.6658C52.9964 76.8231 54.1402 80.3115 54.3832 81.0549C54.4881 81.3742 54.5882 81.7317 54.612 81.846C54.6692 82.1749 54.6311 82.761 54.5214 83.2662C54.3642 83.9906 54.3499 84.6006 54.4595 85.7729C54.4786 85.9874 54.4881 86.3114 54.4738 86.5831C54.4452 87.2074 54.469 87.2788 54.8264 87.8602L54.9694 88.089L54.917 88.3368C54.8217 88.8229 54.9027 89.2852 55.1219 89.4138C55.2125 89.471 55.2697 89.4758 56.2133 89.4758C57.195 89.4758 57.2045 89.4758 57.3046 89.4091C57.4857 89.2852 57.5191 89.1851 57.5096 88.7609L57.5 88.3845L57.3571 88.1128C57.2808 87.9651 57.1807 87.722 57.1331 87.5695C57.0664 87.3408 57.0235 87.2598 56.9043 87.1263C56.747 86.9452 56.7375 86.9071 56.7899 86.5878C56.871 86.0827 56.8757 85.7681 56.8328 84.5672C56.7184 81.4362 56.6088 79.8778 56.2419 75.9986C56.1752 75.2742 56.1561 74.6976 56.199 74.364C56.2181 74.1877 56.2371 74.14 56.3229 74.0542C56.4706 73.9065 56.5278 73.9303 56.6946 74.1972C56.8424 74.445 56.9567 74.5356 57.195 74.6023C57.3237 74.6404 57.3714 74.6404 57.4571 74.6118C57.5572 74.5737 57.562 74.5785 57.7193 74.7167C58.2006 75.1408 58.8011 75.1789 59.1966 74.8167C59.2872 74.731 59.4206 74.5403 59.5874 74.2401C59.7304 73.9923 59.8686 73.7635 59.8972 73.7349C59.9496 73.6777 59.9592 73.6777 60.0164 73.7302C60.2689 73.9589 60.3309 74.9597 60.1546 75.9795C59.921 77.333 59.7209 78.1003 59.0918 80.0542C58.8678 80.7356 58.8535 80.8262 58.7963 81.5839C58.7773 81.846 58.7439 82.0033 58.6867 82.1701C58.539 82.5704 58.5151 82.7086 58.5342 82.8754C58.5723 83.1709 58.5628 83.1709 59.3491 83.1899C60.0926 83.209 60.226 83.2328 60.3833 83.3901C60.5263 83.5235 60.5644 83.7332 60.5644 84.3098C60.5644 84.5863 60.5406 85.0867 60.512 85.4203C60.4596 85.9969 60.4596 86.0303 60.512 86.3019C60.5882 86.6879 60.5787 86.9119 60.4882 87.1121C60.3881 87.336 60.2308 87.4981 59.9687 87.6601C59.678 87.8412 59.5779 88.0413 59.7113 88.1652C59.7637 88.2129 59.8448 88.2177 60.7646 88.1938L61.7558 88.1748L61.813 88.0985C61.8893 88.0032 61.8893 87.946 61.8083 87.7792C61.7415 87.6458 61.7415 87.6458 61.794 87.4266C61.8369 87.2455 61.8559 87.0215 61.8702 86.1875C61.894 85.1391 61.9894 83.8762 62.0609 83.7094L62.099 83.6188L62.404 83.6045C62.6756 83.5903 62.7137 83.5998 62.7376 83.6474C62.7566 83.6808 62.7567 83.9477 62.7328 84.3861C62.6899 85.3154 62.7185 87.174 62.7805 87.541C62.8043 87.6982 62.8186 87.8602 62.8091 87.9079C62.7852 88.0318 62.8186 88.1319 62.9044 88.17C62.9568 88.1938 63.1999 88.2081 63.624 88.2081C64.3913 88.2081 64.3389 88.2415 64.3198 87.7697L64.3103 87.4599L64.2102 87.3742L64.1101 87.2884L64.2007 86.3734C64.3055 85.3345 64.3722 84.572 64.4008 84.0573C64.4199 83.757 64.4294 83.6999 64.4771 83.676C64.5104 83.6617 64.844 83.6379 65.2205 83.6284L65.9068 83.6093L65.9259 83.3234C65.9449 83.047 65.9449 83.0279 65.7781 82.3607C65.6209 81.7364 65.3635 80.7928 64.987 79.4299C64.7821 78.6864 64.763 78.5721 64.763 78.105C64.763 77.7524 64.7773 77.6523 64.8536 77.3282C65.1348 76.1988 65.1633 75.5411 64.9775 74.0495C64.9155 73.5538 64.925 73.4156 65.0251 73.2727C65.049 73.2393 65.068 73.1869 65.068 73.1631C65.068 73.1345 64.9489 72.8676 64.7964 72.5674C64.3341 71.6238 64.2054 71.252 63.9719 70.1845C63.7575 69.1981 63.6049 68.5499 63.5239 68.2926C63.3762 67.8303 63.0998 67.4824 62.7185 67.2871C62.199 67.0249 61.3174 67.2728 60.9933 67.7732C60.8027 68.0639 60.6359 68.9121 60.6264 69.5841L60.6216 69.9177L60.7503 70.0988C60.9028 70.3132 60.9266 70.3752 60.9647 70.6277C61.0029 70.8613 60.9647 71.0376 60.8646 71.0996C60.8265 71.1234 60.6645 71.1663 60.4977 71.1996C60.3309 71.233 60.1307 71.2902 60.0497 71.3283C59.7781 71.4522 59.0537 72.2576 58.9822 72.5102C58.9536 72.6102 58.9631 72.6627 59.0298 72.8914C59.1633 73.3251 59.1633 73.3632 59.0155 73.6539C58.9441 73.7969 58.8249 73.978 58.7439 74.059L58.6009 74.2115L58.4198 74.1972C58.2864 74.1877 58.2054 74.1591 58.1148 74.1019C57.886 73.9494 57.8956 74.0733 57.8718 71.5809C57.8575 70.256 57.8384 69.2886 57.8193 69.1838C57.7479 68.7596 57.6525 68.3975 57.4524 67.7493C57.1998 66.9249 57.1998 66.8677 57.3952 66.7247C57.6478 66.5389 57.724 66.4578 57.724 66.372C57.724 66.2005 57.2474 64.8423 56.8567 63.8987C56.342 62.6596 56.28 62.5452 55.9559 62.2164C55.7653 62.0258 55.67 61.9591 55.3698 61.8113C55.1744 61.7113 54.8026 61.554 54.55 61.4587C53.7637 61.168 53.411 60.9535 53.2061 60.6438C53.0584 60.4245 53.0822 60.3149 53.3109 60.0576C53.5349 59.8098 53.5349 59.805 53.4158 58.7185C53.2585 57.2459 53.1966 56.979 52.9869 56.8217C52.9297 56.7788 52.7391 56.674 52.5723 56.593C51.8479 56.2784 51.2236 56.1498 50.8089 56.2594ZM55.7796 67.2108C55.9559 67.349 55.9988 67.4443 55.9988 67.7017C56.0036 68.0686 56.0655 68.3498 56.2943 69.0313C56.4134 69.3744 56.5469 69.8128 56.5945 70.013C56.7661 70.7183 56.8948 71.5952 56.9043 72.1194C56.9091 72.4053 56.8995 72.4577 56.8328 72.6055C56.6899 72.9057 56.6088 72.9391 56.4087 72.7628C56.2562 72.6245 56.0799 72.2671 56.0131 71.9478C55.9655 71.7191 55.7844 70.3847 55.7272 69.8367C55.6652 69.2743 55.5842 67.2441 55.6176 67.1869C55.6509 67.1345 55.6938 67.1441 55.7796 67.2108ZM36.9597 67.7064C37.1074 67.8542 37.1741 68.426 37.1503 69.341C37.1265 70.2322 37.1027 70.3609 36.8119 71.0948C36.7357 71.2854 36.7262 71.3378 36.7262 71.7095C36.7309 71.9335 36.7405 72.3577 36.7548 72.6531C36.7786 73.2298 36.7405 73.7445 36.6166 74.4641C36.5499 74.8739 36.5165 74.9216 36.3735 74.8406C36.1686 74.7214 36.0209 74.2877 35.997 73.7349C35.9827 73.4061 36.0018 73.2536 36.1781 71.9669C36.2877 71.1901 36.445 70.0797 36.526 69.4935C36.6928 68.3307 36.7834 67.7398 36.8119 67.6969C36.8358 67.6445 36.9025 67.654 36.9597 67.7064ZM64.0672 74.6166C64.0958 74.7929 64.091 75.8175 64.0577 75.9033C64.0386 75.9652 64.0291 75.9557 63.9385 75.808C63.7336 75.4553 63.6812 75.0931 63.7717 74.7548C63.8289 74.5499 63.9433 74.4069 64.0053 74.4593C64.0291 74.4736 64.0577 74.5451 64.0672 74.6166ZM40.7294 80.6737C40.8628 80.8024 40.8867 81.3647 40.7961 82.3083C40.6865 83.5378 40.7008 84.2145 40.8581 84.8102C40.9343 85.0962 40.9343 85.1438 40.9486 86.1303C40.9629 87.1406 40.9343 87.8841 40.8628 88.2129C40.8438 88.2987 40.7866 88.4703 40.7294 88.5894C40.6245 88.8181 40.2671 89.3948 40.1861 89.4567C40.0956 89.5282 39.7477 89.3567 39.6094 89.1613C39.476 88.9802 39.4093 88.7609 39.333 88.2939C39.2759 87.927 39.2663 87.7411 39.2663 86.9834C39.2615 86.0445 39.2711 85.9731 39.4569 84.5291C39.6285 83.1947 39.6476 82.9421 39.6285 82.0414C39.6142 81.603 39.5999 81.1359 39.5904 81.0025L39.5713 80.7595L39.7048 80.7404C39.7762 80.7309 40.0193 80.7023 40.2433 80.6785C40.4673 80.6594 40.6579 80.6355 40.6675 80.6355C40.677 80.6308 40.7056 80.6499 40.7294 80.6737ZM31.4553 88.6656C31.4743 89.1184 31.46 89.1994 31.3552 89.1994C31.1645 89.1994 30.9739 89.0564 30.9215 88.8706C30.8834 88.7228 30.9644 88.5608 31.1789 88.3606C31.4124 88.1414 31.4314 88.1652 31.4553 88.6656Z" fill="#3771C8"/>
<path d="M44.5941 114.055C20.8131 117.105 -9.30643 78.932 9.61356 52.9594C10.1855 52.1969 11.0433 51.625 11.9964 51.625C13.0449 51.5773 14.0934 52.1492 13.8551 54.7227C13.3785 59.4883 10.5191 69.4961 13.3785 71.8789C13.3785 71.8789 24.4827 79.1227 27.1038 83.4117C27.8664 84.6508 28.9148 85.6992 30.1063 86.5094C32.6321 88.2727 36.3971 90.7984 38.1127 91.418C44.8324 93.8008 44.8324 107.145 44.5941 114.055Z" fill="#4064AD"/>
<path d="M20.0504 75.2148C20.0504 75.2148 12.7112 72.3078 12.187 77.2164C11.9963 78.9797 12.5682 80.6953 13.6167 82.125C14.9034 83.8883 17.3816 86.3187 19.8121 87.8437C23.6247 90.2266 27.6756 96.1836 27.6756 96.1836" stroke="#EBE2DD" stroke-width="2" stroke-miterlimit="10" stroke-linecap="round"/>
<path d="M46.6433 114.055C70.4243 117.105 100.544 78.932 81.6238 52.9594C81.0519 52.1969 80.1941 51.625 79.2409 51.625C78.1925 51.5773 77.144 52.1492 77.3823 54.7227C77.8589 59.4883 80.7183 69.4961 77.8589 71.8789C77.8589 71.8789 66.7547 79.1227 64.1335 83.4117C63.371 84.6508 62.3226 85.6992 61.1311 86.5094C58.6053 88.2727 54.8404 90.7985 53.1247 91.418C46.405 93.8008 46.405 107.145 46.6433 114.055Z" fill="#4064AD"/>
<path d="M71.1867 75.2148C71.1867 75.2148 78.526 72.3078 79.0502 77.2164C79.2409 78.9797 78.669 80.6953 77.6205 82.125C76.3337 83.8883 73.8556 86.3187 71.425 87.8437C67.6124 90.2266 63.5615 96.1836 63.5615 96.1836" stroke="#EBE2DD" stroke-width="2" stroke-miterlimit="10" stroke-linecap="round"/>
<path d="M21.2416 77.9789C19.7642 75.8344 18.7634 73.4039 18.0009 70.8781C17.286 68.3524 16.8095 65.7789 16.5712 63.1578C16.4759 61.8235 16.3805 60.5367 16.4282 59.2023C16.4282 57.868 16.5235 56.5336 16.6665 55.1992C16.9524 52.5305 17.5243 49.8141 18.6681 47.193C19.24 45.8586 19.9072 44.5719 20.8127 43.3805C21.7182 42.1414 22.8619 40.9977 24.244 40.0922C25.6261 39.1867 27.2464 38.5672 28.9144 38.3289C30.5824 38.043 32.2028 38.1383 33.7278 38.4242C35.2529 38.7102 36.6826 39.1867 38.017 39.7586C39.3514 40.3781 40.5905 41.093 41.7343 41.8555C44.0218 43.4758 46.0234 45.2867 47.6438 47.4313L44.6414 47.193C45.4992 46.4781 46.4524 45.8109 47.4055 45.2391C48.3587 44.6672 49.3595 44.0953 50.4079 43.6664C52.4572 42.7133 54.6971 41.9984 57.08 41.6649C58.2714 41.5219 59.5105 41.4742 60.7972 41.6172C62.084 41.7602 63.3707 42.0461 64.5622 42.5703C65.7536 43.0945 66.945 43.8094 67.8982 44.6672C68.899 45.525 69.7091 46.5258 70.3764 47.5266C71.7108 49.5758 72.4256 51.8156 72.9499 54.0078C73.4264 56.2 73.6171 58.3922 73.7124 60.5367C73.8077 64.8258 73.3311 69.0195 72.5686 73.1656L72.0444 73.118C71.7584 68.9719 71.4248 64.8258 70.6623 60.8703C70.2811 58.8688 69.8045 56.9625 69.1373 55.1516C68.4701 53.3406 67.6122 51.6727 66.5161 50.3859C64.3715 47.6695 61.3215 46.9547 57.8901 47.4789C54.4588 48.0031 50.8368 49.5758 47.4532 51.3391L46.0234 52.0539L44.4507 51.1008C42.3062 49.8141 40.3522 48.4797 38.3506 47.2883C36.3967 46.1445 34.395 45.0961 32.4887 44.5242C30.5824 44 28.7715 44.0953 27.1988 44.9055C25.6261 45.7156 24.1487 47.3359 23.1002 49.3375C22.0518 51.2914 21.2416 53.5789 20.6697 55.9141C20.3838 57.1055 20.1931 58.2969 20.0025 59.4883C19.8119 60.6797 19.7166 61.9188 19.6689 63.1578C19.5736 65.636 19.6212 68.1141 19.9072 70.5922C20.2408 73.0703 20.765 75.5008 21.7658 77.8359L21.2416 77.9789Z" fill="#F20101"/>
<path d="M51.3608 35.9461C53.7437 32.7055 56.8891 29.9891 60.5587 27.9398C64.1807 25.8906 68.3745 24.6039 72.759 24.2703C73.0449 24.2227 73.2832 24.2227 73.5692 24.2227H74.3793C74.9512 24.2227 75.4755 24.2227 76.0474 24.2703L77.7154 24.4133C78.0013 24.4609 78.2873 24.4609 78.5255 24.5086L79.3357 24.6516L81.0037 24.9852C81.528 25.1281 82.0998 25.3187 82.6241 25.5094C83.1483 25.6523 83.7202 25.843 84.2444 26.0812C84.7687 26.3195 85.2929 26.5578 85.8171 26.7961C86.3413 27.0344 86.8179 27.368 87.2945 27.6063L88.057 28.0352C88.2953 28.1781 88.5336 28.3211 88.7719 28.5117C89.6774 29.1789 90.6305 29.8461 91.4407 30.6562C91.8696 31.0375 92.2985 31.4187 92.6798 31.8C93.0611 32.2289 93.4423 32.6578 93.8236 33.0867L94.3954 33.7062C94.5861 33.9445 94.729 34.1828 94.9197 34.3734L95.9205 35.7555L96.1588 36.0891L96.3494 36.4703L96.7783 37.1852L97.5885 38.6148C98.0174 39.6156 98.494 40.6164 98.8753 41.6172L99.3995 43.1422C99.5424 43.6664 99.7807 44.143 99.876 44.6672L100.257 46.2398C100.353 46.7641 100.543 47.2883 100.591 47.8125C101.353 52.0062 101.353 56.2 100.877 60.2508C100.4 64.3016 99.5901 68.257 98.3034 72.0219C97.9698 72.975 97.6838 73.9281 97.3502 74.8336C96.9689 75.7391 96.5877 76.6922 96.2541 77.5976C95.8728 78.5031 95.4439 79.4086 95.015 80.2664C94.5861 81.1719 94.1572 82.0297 93.6806 82.8875L93.2517 82.7445C93.347 81.7437 93.5376 80.7906 93.6329 79.8375C93.7759 78.8844 93.9665 77.9312 94.0618 76.9781C94.3001 75.0719 94.5861 73.1656 94.7291 71.2594C94.9673 69.3531 95.015 67.4945 95.1103 65.5883C95.158 64.6351 95.1103 63.7297 95.158 62.7766V61.3945L95.1103 60.0125L95.0627 58.6305L95.015 57.9633C95.015 57.725 94.9673 57.4867 94.9673 57.2961C94.872 56.3906 94.7767 55.4852 94.6814 54.5797L94.2048 51.9586C94.0142 51.1008 93.7759 50.243 93.5853 49.3851C93.4899 48.9562 93.347 48.575 93.204 48.1461L92.8228 46.907C92.7274 46.4781 92.5368 46.0969 92.3462 45.7156L91.8696 44.5242C91.536 43.7617 91.1071 43.0469 90.7258 42.2844L90.0586 41.2359L89.725 40.7117L89.5821 40.4734L89.3914 40.2352L88.6289 39.282C88.4859 39.1391 88.3906 38.9484 88.2476 38.8055L87.8187 38.3766C87.5328 38.0906 87.2945 37.8047 87.0086 37.4711C86.7226 37.1852 86.389 36.9469 86.103 36.6609C85.5312 36.0891 84.864 35.6602 84.2444 35.2313C83.9585 34.993 83.5772 34.85 83.2436 34.6117C82.91 34.4211 82.5764 34.1828 82.1952 34.0398C79.3834 32.6102 76.1903 31.7523 72.8543 31.5141C69.5183 31.3234 65.9916 31.657 62.465 32.5148C58.8907 33.325 55.3641 34.6594 51.7421 36.2797L51.3608 35.9461Z" fill="#EDC700"/>
<path d="M50.3125 27.3203L56.5557 23.6984L48.4062 16.8359L50.3125 27.3203Z" fill="#EDC700"/>
<path d="M64.6098 20.1719L71.7584 17.7891L63.2754 3.53985L64.6098 20.1719Z" fill="#EDC700"/>
<path d="M82.2432 17.7891C82.2432 17.7891 88.9152 20.6484 88.9152 21.6016C88.9152 22.5547 90.8215 9.21094 90.8215 9.21094L82.2432 17.7891Z" fill="#EDC700"/>
<path d="M95.4922 27.9398C95.4922 27.9398 99.8767 32.5625 99.8767 33.5156C99.8767 34.4687 111.457 21.6492 111.457 21.6492L95.4922 27.9398Z" fill="#EDC700"/>
<path d="M102.736 41.6172C102.736 41.6172 105.595 48.2891 105.119 49.7188L115.222 41.6172H102.736Z" fill="#EDC700"/>
<path d="M104.737 55.914C104.737 55.914 105.119 62.5859 104.166 64.0156L121.322 60.6797L104.737 55.914Z" fill="#EDC700"/>
<path d="M103.498 70.4969C103.498 70.4969 101.782 76.4062 100.829 77.3594L112.267 76.4062L103.498 70.4969Z" fill="#EDC700"/>
</g>
<defs>
<clipPath id="clip0">
<rect width="121" height="114" fill="white"/>
</clipPath>
</defs>
</svg>
