<svg width="120" height="113" viewBox="0 0 120 113" fill="none" xmlns="http://www.w3.org/2000/svg">
<g clip-path="url(#clip0)">
<path d="M49.8089 55.2594C49.7327 55.2784 49.585 55.3499 49.4801 55.4214C49.2561 55.5644 48.9654 55.6978 48.7509 55.755C48.5222 55.817 48.384 55.898 48.303 56.0171C48.2267 56.1363 48.1648 56.3936 48.1648 56.608C48.1648 56.751 48.2077 56.8035 48.241 56.7081C48.2696 56.6128 48.3173 56.6414 48.3173 56.751C48.3173 56.8082 48.3602 57.0703 48.4078 57.3277C48.5174 57.89 48.5079 57.9853 48.3649 58.1474C48.2172 58.3142 48.2219 58.3857 48.4078 58.6382C48.4888 58.7526 48.5746 58.9003 48.5889 58.967C48.608 59.0337 48.6509 59.1529 48.6938 59.2291C48.7462 59.3387 48.7652 59.4198 48.7652 59.5627C48.7652 59.6819 48.7795 59.7677 48.8034 59.7867C48.8224 59.801 48.913 59.8296 49.0035 59.8439L49.1703 59.8678L49.1798 59.9916C49.1941 60.1394 49.1179 60.3062 49.0178 60.3729C48.9797 60.3967 48.6842 60.5159 48.3697 60.635C47.6357 60.9066 47.488 60.9781 47.2831 61.1878C47.102 61.3689 46.94 61.6739 46.7017 62.2744C46.3871 63.0607 45.9773 64.3665 45.8772 64.9002C45.82 65.21 45.8534 65.4149 45.9868 65.596C46.0345 65.6628 46.0726 65.7295 46.0726 65.7438C46.0726 65.7581 46.0297 65.7819 45.9773 65.7962C45.9201 65.8153 45.8629 65.8581 45.8438 65.901C45.7914 66.0106 45.129 69.032 44.9765 69.8422C44.9145 70.1615 44.9097 70.1806 44.843 70.2187C44.7906 70.2473 44.7763 70.233 44.7048 70.1234C44.4665 69.7469 44.3903 69.5563 44.1711 68.7938C43.5134 66.5015 42.7604 64.2426 42.3172 63.2418C42.0646 62.6747 41.8406 62.4888 41.121 62.2649C40.592 62.0981 40.5205 61.9884 40.6349 61.5166C40.7111 61.2116 40.6873 60.9924 40.5157 60.1203C40.3061 59.0719 40.1583 58.5763 39.8581 57.971C39.6722 57.585 39.4149 57.2991 39.1384 57.1609C38.9431 57.0608 38.4522 56.9512 38.2282 56.9512C38.0376 56.9512 37.8517 57.0417 37.4895 57.3181C36.8795 57.7756 36.7413 57.971 36.6889 58.4857C36.6746 58.6573 36.6603 59.3197 36.665 59.9631C36.6793 61.8741 36.6793 61.7168 36.6078 61.8836C36.4744 62.1791 36.2742 62.3077 35.6595 62.4793C35.1876 62.6127 34.9636 62.7271 34.7635 62.9273C34.5395 63.1513 34.4918 63.3038 34.387 64.1282C34.1439 66.044 34.0296 67.7215 34.0296 69.3085C34.0296 70.071 34.001 70.476 33.8914 71.1194C33.8294 71.4911 33.8104 71.7246 33.8008 72.287C33.7818 73.1591 33.7865 73.1829 34.0486 73.4355C34.1535 73.5403 34.2393 73.6404 34.2393 73.6642C34.2393 73.6881 34.2011 73.831 34.1487 73.9835C34.0772 74.2075 34.0582 74.3171 34.0582 74.5268C34.0582 74.6698 34.0439 74.8366 34.02 74.8938C33.9438 75.1273 33.5959 75.5228 33.3242 75.6944C33.0669 75.8612 32.8429 75.8135 32.5284 75.5228C32.4378 75.4466 32.3234 75.3513 32.2758 75.3179C32.1328 75.2178 31.8516 75.1368 31.5704 75.113C31.2702 75.0891 31.1129 75.0129 30.9938 74.8366C30.7698 74.5078 30.8079 74.2838 31.1177 74.1265C31.375 73.9931 31.4132 73.9168 31.4847 73.4069C31.5037 73.2592 31.5228 72.9351 31.5228 72.6873C31.5275 72.1154 31.4942 72.0249 31.1558 71.7056C30.8937 71.4577 30.7364 71.3434 30.4791 71.2147C30.0311 70.9907 29.7261 70.9621 29.4116 71.1051C29.0398 71.2814 28.3059 71.9439 28.1772 72.2203C28.0724 72.4442 28.0724 72.7492 28.1725 73.1686C28.3488 73.893 28.5585 74.2361 28.9779 74.4839C29.1352 74.5745 29.2067 74.6841 29.2067 74.8414C29.2067 74.9843 29.1542 75.0272 28.8826 75.0891C28.63 75.1416 28.5204 75.1892 28.2869 75.3513C28.2011 75.4084 28.0772 75.4656 28.0152 75.4752C27.8722 75.499 27.7293 75.5848 27.6625 75.6801C27.6339 75.723 27.5291 75.9517 27.4338 76.1852C27.3337 76.4235 27.1383 76.8524 27.0001 77.1384C26.5712 78.0295 26.838 78.549 27 78.8588C27.2097 79.2591 27.2095 80.3651 27.5 80.5C27.6334 80.562 28.5 81.5 28.5 81C28.7473 81.1567 28.6191 80.9952 28.5 81C28.5667 81.0524 28.2515 81 28.2535 80.927C28.2154 82.2948 28.2249 82.5569 28.3869 83.9246C28.4489 84.4202 28.4965 84.9588 28.4965 85.1208C28.4965 85.3877 28.487 85.4496 28.4012 85.6736C28.2106 86.1788 28.2249 86.5171 28.4775 87.3511C28.6919 88.0707 28.7444 88.3471 28.7205 88.6521C28.6919 89.0429 28.4489 89 30.7936 89C32.333 89 32.8334 88.9905 32.862 88.9619C32.9096 88.9142 32.9048 88.7808 32.8572 88.6617C32.8095 88.5473 32.5141 88.2613 32.3997 88.2184C32.3568 88.1994 32.2424 88.1756 32.1519 88.1565C32.0613 88.1422 31.9374 88.0945 31.8755 88.0564C31.4847 87.7991 31.3941 87.1938 31.7182 87.0604C31.9803 86.9556 32.0804 86.8936 32.109 86.8269C32.1519 86.7268 32.1995 85.0398 32.2376 81.9421C32.2758 78.6872 32.3044 77.6483 32.3473 77.5673C32.3663 77.5244 32.5045 77.4481 32.7047 77.3624C33.5864 76.9811 34.1106 76.5856 34.5252 75.9994C34.8016 75.6086 34.8969 75.5181 35.0447 75.5181C35.2067 75.5181 35.3163 75.5705 35.3401 75.661C35.364 75.7611 35.3116 76.0661 35.1543 76.6999C34.9827 77.4196 34.9065 77.8008 34.8826 78.101C34.8683 78.3107 34.8445 78.3917 34.7397 78.6062L34.6158 78.8588V79.24C34.6158 79.7595 34.5872 79.7356 35.2496 79.7785C35.526 79.7976 35.9978 79.8166 36.2838 79.8309C36.6269 79.8452 36.8271 79.8691 36.8509 79.8881C36.8795 79.9167 36.8652 80.0692 36.7985 80.5601C36.6889 81.3607 36.6841 82.0088 36.7794 82.7999C36.8175 83.0859 36.8795 83.7388 36.9224 84.2535C37.0082 85.3162 37.0653 85.7832 37.1511 86.2884C37.2321 86.7363 37.2369 87.2081 37.1654 87.4464C37.1368 87.537 37.0653 87.6942 37.0034 87.7895C36.8318 88.0755 36.7937 88.166 36.7556 88.39C36.7032 88.7331 36.7127 88.838 36.7985 88.9285L36.87 89L39.1337 88.9953L41.3974 88.9857L41.4641 88.919C41.5547 88.8285 41.5737 88.5949 41.507 88.452C41.4689 88.3662 41.426 88.3328 41.3164 88.2947C41.0781 88.2184 40.9971 88.1136 40.9065 87.7705C40.8684 87.637 40.8541 87.4703 40.8541 87.232C40.8541 86.8555 40.8732 86.7459 41.4308 84.1391C41.5785 83.448 41.7215 82.7332 41.7501 82.5378C41.8406 81.8611 41.793 80.7269 41.6405 79.9596C41.6119 79.831 41.6166 79.7928 41.65 79.7595C41.6738 79.7356 41.893 79.6832 42.1361 79.6403C43.4705 79.4116 43.9757 79.2638 44.0853 79.0542C44.1711 78.8921 44.1377 78.4442 43.9947 77.858C43.909 77.4863 43.4514 76.0566 42.5316 73.2592C42.1647 72.1392 41.8454 71.148 41.8263 71.0574C41.8025 70.9478 41.7977 70.7572 41.812 70.457L41.8311 70.0233L41.6929 69.6039C41.4212 68.7699 41.2878 68.2553 41.1639 67.5833C41.0733 67.0782 41.0638 66.2489 41.1448 65.8915C41.1782 65.7581 41.2115 65.6389 41.2258 65.6294C41.2401 65.6151 41.2687 65.6771 41.2973 65.7628C41.569 66.6111 42.3696 69.013 42.4983 69.3609C42.7175 69.9518 42.8128 70.1281 43.0988 70.4284C43.5372 70.8906 43.7088 71.1575 43.9328 71.7532C44.0758 72.1249 44.2092 72.4061 44.3283 72.5824C44.4284 72.7397 44.4856 72.9256 44.5333 73.2592C44.5571 73.426 44.5762 73.5737 44.5762 73.5927C44.5762 73.6118 44.6191 73.6785 44.6667 73.7357C44.7525 73.8263 44.7763 73.8406 44.905 73.8406C45.0861 73.8406 45.4102 73.6881 45.5627 73.526C45.6198 73.4641 45.7485 73.3592 45.8486 73.2973C46.1917 73.0638 46.2013 73.0447 46.1298 72.6635C46.0583 72.2631 46.0059 72.1059 45.882 71.9343C45.7247 71.7103 45.6866 71.5912 45.658 71.2671C45.6294 70.8192 45.7199 70.4903 45.9487 70.1996C46.125 69.9852 46.4014 69.5467 46.5492 69.2513C46.7875 68.7747 46.9686 68.2934 47.3832 66.9971C47.6691 66.1107 47.7978 65.7485 47.8454 65.6961C47.9312 65.6056 48.0075 65.6294 47.9884 65.7342C47.9789 65.7771 47.998 65.9153 48.0266 66.044C48.0742 66.2441 48.079 66.3681 48.0694 66.9209C48.0361 68.6603 48.0456 68.9415 48.16 69.7802C48.303 70.781 48.3316 71.1194 48.3316 71.6293C48.3316 72.0916 48.3125 72.2631 48.1743 72.9398C48.0885 73.3783 48.0837 73.445 48.0837 74.0645C48.0837 74.7079 48.0885 74.7413 48.222 75.5181C48.4173 76.6523 48.4364 76.862 48.6794 80.5792C48.8796 83.6768 48.8987 83.9056 48.9654 84.0295C48.9988 84.0962 49.0655 84.3392 49.1131 84.5775C49.2227 85.1017 49.218 85.1208 48.9416 85.2399C48.6747 85.3495 48.6413 85.4305 48.7128 85.7594C48.7652 86.0167 48.7652 86.031 48.5841 86.2645C48.5317 86.3313 48.4412 86.5171 48.384 86.6696C48.322 86.8269 48.2362 86.9889 48.1934 87.0318C48.1028 87.1224 47.9551 87.1986 47.8502 87.1986C47.7358 87.1986 47.4832 87.332 47.3927 87.4417C47.0829 87.8086 47.1449 88.247 47.5262 88.4377L47.6834 88.5139H49.0274C50.4857 88.5139 50.5047 88.5092 50.6334 88.3471C50.6954 88.2709 50.7001 88.228 50.7001 87.923C50.7001 87.6799 50.6858 87.5465 50.6525 87.4607C50.5858 87.2939 50.6096 87.1986 50.805 86.8507C51.1004 86.3217 51.1052 86.3122 51.1052 85.3448C51.1052 84.8825 51.0861 83.672 51.0623 82.6474C51.0004 80.0931 51.0051 80.0645 51.3149 79.4688C51.5675 78.9827 51.6104 78.7539 51.6104 77.9152C51.6151 77.5339 51.6008 76.8858 51.5913 76.4712L51.5675 75.7182L51.6342 75.6372C51.6819 75.5848 51.7343 75.5562 51.801 75.5514C51.8916 75.5467 51.9058 75.5562 51.944 75.6658C51.9964 75.8231 53.1402 79.3115 53.3832 80.0549C53.4881 80.3742 53.5882 80.7317 53.612 80.846C53.6692 81.1749 53.6311 81.761 53.5214 82.2662C53.3642 82.9906 53.3499 83.6006 53.4595 84.7729C53.4786 84.9874 53.4881 85.3114 53.4738 85.5831C53.4452 86.2074 53.469 86.2788 53.8264 86.8602L53.9694 87.089L53.917 87.3368C53.8217 87.8229 53.9027 88.2852 54.1219 88.4138C54.2125 88.471 54.2697 88.4758 55.2133 88.4758C56.195 88.4758 56.2045 88.4758 56.3046 88.4091C56.4857 88.2852 56.5191 88.1851 56.5096 87.7609L56.5 87.3845L56.3571 87.1128C56.2808 86.9651 56.1807 86.722 56.1331 86.5695C56.0664 86.3408 56.0235 86.2598 55.9043 86.1263C55.747 85.9452 55.7375 85.9071 55.7899 85.5878C55.871 85.0827 55.8757 84.7681 55.8328 83.5672C55.7184 80.4362 55.6088 78.8778 55.2419 74.9986C55.1752 74.2742 55.1561 73.6976 55.199 73.364C55.2181 73.1877 55.2371 73.14 55.3229 73.0542C55.4706 72.9065 55.5278 72.9303 55.6946 73.1972C55.8424 73.445 55.9567 73.5356 56.195 73.6023C56.3237 73.6404 56.3714 73.6404 56.4571 73.6118C56.5572 73.5737 56.562 73.5785 56.7193 73.7167C57.2006 74.1408 57.8011 74.1789 58.1966 73.8167C58.2872 73.731 58.4206 73.5403 58.5874 73.2401C58.7304 72.9923 58.8686 72.7635 58.8972 72.7349C58.9496 72.6777 58.9592 72.6777 59.0164 72.7302C59.2689 72.9589 59.3309 73.9597 59.1546 74.9795C58.921 76.333 58.7209 77.1003 58.0918 79.0542C57.8678 79.7356 57.8535 79.8262 57.7963 80.5839C57.7773 80.846 57.7439 81.0033 57.6867 81.1701C57.539 81.5704 57.5151 81.7086 57.5342 81.8754C57.5723 82.1709 57.5628 82.1709 58.3491 82.1899C59.0926 82.209 59.226 82.2328 59.3833 82.3901C59.5263 82.5235 59.5644 82.7332 59.5644 83.3098C59.5644 83.5863 59.5406 84.0867 59.512 84.4203C59.4596 84.9969 59.4596 85.0303 59.512 85.3019C59.5882 85.6879 59.5787 85.9119 59.4882 86.1121C59.3881 86.336 59.2308 86.4981 58.9687 86.6601C58.678 86.8412 58.5779 87.0413 58.7113 87.1652C58.7637 87.2129 58.8448 87.2177 59.7646 87.1938L60.7558 87.1748L60.813 87.0985C60.8893 87.0032 60.8893 86.946 60.8083 86.7792C60.7415 86.6458 60.7415 86.6458 60.794 86.4266C60.8369 86.2455 60.8559 86.0215 60.8702 85.1875C60.8941 84.1391 60.9894 82.8762 61.0609 82.7094L61.099 82.6188L61.404 82.6045C61.6756 82.5903 61.7137 82.5998 61.7376 82.6474C61.7566 82.6808 61.7567 82.9477 61.7328 83.3861C61.6899 84.3154 61.7185 86.174 61.7805 86.541C61.8043 86.6982 61.8186 86.8602 61.8091 86.9079C61.7852 87.0318 61.8186 87.1319 61.9044 87.17C61.9568 87.1938 62.1999 87.2081 62.624 87.2081C63.3913 87.2081 63.3389 87.2415 63.3198 86.7697L63.3103 86.4599L63.2102 86.3742L63.1101 86.2884L63.2007 85.3734C63.3055 84.3345 63.3722 83.572 63.4008 83.0573C63.4199 82.757 63.4294 82.6999 63.4771 82.676C63.5104 82.6617 63.844 82.6379 64.2205 82.6284L64.9068 82.6093L64.9259 82.3234C64.9449 82.047 64.9449 82.0279 64.7781 81.3607C64.6209 80.7364 64.3635 79.7928 63.987 78.4299C63.7821 77.6864 63.763 77.5721 63.763 77.105C63.763 76.7524 63.7773 76.6523 63.8536 76.3282C64.1348 75.1988 64.1633 74.5411 63.9775 73.0495C63.9155 72.5538 63.925 72.4156 64.0251 72.2727C64.049 72.2393 64.068 72.1869 64.068 72.1631C64.068 72.1345 63.9489 71.8676 63.7964 71.5674C63.3341 70.6238 63.2054 70.252 62.9719 69.1845C62.7575 68.1981 62.6049 67.5499 62.5239 67.2926C62.3762 66.8303 62.0998 66.4824 61.7185 66.2871C61.199 66.0249 60.3174 66.2728 59.9933 66.7732C59.8027 67.0639 59.6359 67.9121 59.6264 68.5841L59.6216 68.9177L59.7503 69.0988C59.9028 69.3132 59.9266 69.3752 59.9647 69.6277C60.0029 69.8613 59.9647 70.0376 59.8646 70.0996C59.8265 70.1234 59.6645 70.1663 59.4977 70.1996C59.3309 70.233 59.1307 70.2902 59.0497 70.3283C58.7781 70.4522 58.0537 71.2576 57.9822 71.5102C57.9536 71.6102 57.9631 71.6627 58.0298 71.8914C58.1633 72.3251 58.1633 72.3632 58.0155 72.6539C57.9441 72.7969 57.8249 72.978 57.7439 73.059L57.6009 73.2115L57.4198 73.1972C57.2864 73.1877 57.2054 73.1591 57.1148 73.1019C56.886 72.9494 56.8956 73.0733 56.8718 70.5809C56.8575 69.256 56.8384 68.2886 56.8193 68.1838C56.7479 67.7596 56.6525 67.3975 56.4524 66.7493C56.1998 65.9249 56.1998 65.8677 56.3952 65.7247C56.6478 65.5389 56.724 65.4578 56.724 65.372C56.724 65.2005 56.2474 63.8423 55.8567 62.8987C55.342 61.6596 55.28 61.5452 54.9559 61.2164C54.7653 61.0258 54.67 60.9591 54.3698 60.8113C54.1744 60.7113 53.8026 60.554 53.55 60.4587C52.7637 60.168 52.411 59.9535 52.2061 59.6438C52.0584 59.4245 52.0822 59.3149 52.3109 59.0576C52.5349 58.8098 52.5349 58.805 52.4158 57.7185C52.2585 56.2459 52.1966 55.979 51.9869 55.8217C51.9297 55.7788 51.7391 55.674 51.5723 55.593C50.8479 55.2784 50.2236 55.1498 49.8089 55.2594ZM54.7796 66.2108C54.9559 66.349 54.9988 66.4443 54.9988 66.7017C55.0036 67.0686 55.0655 67.3498 55.2943 68.0313C55.4134 68.3744 55.5469 68.8128 55.5945 69.013C55.7661 69.7183 55.8948 70.5952 55.9043 71.1194C55.9091 71.4053 55.8995 71.4577 55.8328 71.6055C55.6899 71.9057 55.6088 71.9391 55.4087 71.7628C55.2562 71.6245 55.0799 71.2671 55.0131 70.9478C54.9655 70.7191 54.7844 69.3847 54.7272 68.8367C54.6652 68.2743 54.5842 66.2441 54.6176 66.1869C54.6509 66.1345 54.6938 66.1441 54.7796 66.2108ZM35.9597 66.7064C36.1074 66.8542 36.1741 67.426 36.1503 68.341C36.1265 69.2322 36.1027 69.3609 35.8119 70.0948C35.7357 70.2854 35.7262 70.3378 35.7262 70.7095C35.7309 70.9335 35.7405 71.3577 35.7548 71.6531C35.7786 72.2298 35.7405 72.7445 35.6166 73.4641C35.5499 73.8739 35.5165 73.9216 35.3735 73.8406C35.1686 73.7214 35.0209 73.2877 34.997 72.7349C34.9827 72.4061 35.0018 72.2536 35.1781 70.9669C35.2877 70.1901 35.445 69.0797 35.526 68.4935C35.6928 67.3307 35.7834 66.7398 35.8119 66.6969C35.8358 66.6445 35.9025 66.654 35.9597 66.7064ZM63.0672 73.6166C63.0958 73.7929 63.091 74.8175 63.0577 74.9033C63.0386 74.9652 63.0291 74.9557 62.9385 74.808C62.7336 74.4553 62.6812 74.0931 62.7717 73.7548C62.8289 73.5499 62.9433 73.4069 63.0053 73.4593C63.0291 73.4736 63.0577 73.5451 63.0672 73.6166ZM39.7294 79.6737C39.8628 79.8024 39.8867 80.3647 39.7961 81.3083C39.6865 82.5378 39.7008 83.2145 39.8581 83.8102C39.9343 84.0962 39.9343 84.1438 39.9486 85.1303C39.9629 86.1406 39.9343 86.8841 39.8628 87.2129C39.8438 87.2987 39.7866 87.4703 39.7294 87.5894C39.6245 87.8181 39.2671 88.3948 39.1861 88.4567C39.0956 88.5282 38.7477 88.3567 38.6094 88.1613C38.476 87.9802 38.4093 87.7609 38.333 87.2939C38.2759 86.927 38.2663 86.7411 38.2663 85.9834C38.2615 85.0445 38.2711 84.9731 38.4569 83.5291C38.6285 82.1947 38.6476 81.9421 38.6285 81.0414C38.6142 80.603 38.5999 80.1359 38.5904 80.0025L38.5713 79.7595L38.7048 79.7404C38.7762 79.7309 39.0193 79.7023 39.2433 79.6785C39.4673 79.6594 39.6579 79.6355 39.6675 79.6355C39.677 79.6308 39.7056 79.6499 39.7294 79.6737ZM30.4553 87.6656C30.4743 88.1184 30.46 88.1994 30.3552 88.1994C30.1645 88.1994 29.9739 88.0564 29.9215 87.8706C29.8834 87.7228 29.9644 87.5608 30.1789 87.3606C30.4124 87.1414 30.4314 87.1652 30.4553 87.6656Z" fill="#FA9529"/>
<path d="M43.5941 113.055C19.8131 116.105 -10.3064 77.932 8.61356 51.9594C9.18545 51.1969 10.0433 50.625 10.9964 50.625C12.0449 50.5773 13.0934 51.1492 12.8551 53.7227C12.3785 58.4883 9.51907 68.4961 12.3785 70.8789C12.3785 70.8789 23.4827 78.1227 26.1038 82.4117C26.8664 83.6508 27.9148 84.6992 29.1063 85.5094C31.6321 87.2727 35.3971 89.7985 37.1127 90.418C43.8324 92.8008 43.8324 106.145 43.5941 113.055Z" fill="#A5D208"/>
<path d="M19.0502 74.2148C19.0502 74.2148 11.7109 71.3078 11.1867 76.2164C10.9961 77.9797 11.568 79.6953 12.6164 81.125C13.9032 82.8883 16.3814 85.3187 18.8119 86.8437C22.6245 89.2266 26.6754 95.1836 26.6754 95.1836" stroke="#F2F2F2" stroke-width="3" stroke-miterlimit="10" stroke-linecap="round"/>
<path d="M45.6433 113.055C69.4243 116.105 99.5438 77.932 80.6238 51.9594C80.0519 51.1969 79.1941 50.625 78.2409 50.625C77.1925 50.5773 76.144 51.1492 76.3823 53.7227C76.8589 58.4883 79.7183 68.4961 76.8589 70.8789C76.8589 70.8789 65.7547 78.1227 63.1335 82.4117C62.371 83.6508 61.3226 84.6992 60.1311 85.5094C57.6053 87.2727 53.8404 89.7985 52.1247 90.418C45.405 92.8008 45.405 106.145 45.6433 113.055Z" fill="#A5D208"/>
<path d="M70.1867 74.2148C70.1867 74.2148 77.526 71.3078 78.0502 76.2164C78.2409 77.9797 77.669 79.6953 76.6205 81.125C75.3337 82.8883 72.8556 85.3187 70.425 86.8437C66.6124 89.2266 62.5615 95.1836 62.5615 95.1836" stroke="white" stroke-width="3" stroke-miterlimit="10" stroke-linecap="round"/>
<path d="M20.2416 76.9789C18.7642 74.8344 17.7634 72.4039 17.0009 69.8781C16.286 67.3524 15.8095 64.7789 15.5712 62.1578C15.4759 60.8235 15.3805 59.5367 15.4282 58.2023C15.4282 56.868 15.5235 55.5336 15.6665 54.1992C15.9524 51.5305 16.5243 48.8141 17.6681 46.193C18.24 44.8586 18.9072 43.5719 19.8127 42.3805C20.7182 41.1414 21.8619 39.9977 23.244 39.0922C24.6261 38.1867 26.2464 37.5672 27.9144 37.3289C29.5824 37.043 31.2028 37.1383 32.7278 37.4242C34.2529 37.7102 35.6826 38.1867 37.017 38.7586C38.3514 39.3781 39.5905 40.093 40.7343 40.8555C43.0218 42.4758 45.0234 44.2867 46.6438 46.4313L43.6414 46.193C44.4992 45.4781 45.4524 44.8109 46.4055 44.2391C47.3587 43.6672 48.3595 43.0953 49.4079 42.6664C51.4572 41.7133 53.6971 40.9984 56.08 40.6649C57.2714 40.5219 58.5105 40.4742 59.7972 40.6172C61.084 40.7602 62.3707 41.0461 63.5622 41.5703C64.7536 42.0945 65.945 42.8094 66.8982 43.6672C67.899 44.525 68.7091 45.5258 69.3764 46.5266C70.7108 48.5758 71.4256 50.8156 71.9499 53.0078C72.4264 55.2 72.6171 57.3922 72.7124 59.5367C72.8077 63.8258 72.3311 68.0195 71.5686 72.1656L71.0444 72.118C70.7584 67.9719 70.4248 63.8258 69.6623 59.8703C69.2811 57.8688 68.8045 55.9625 68.1373 54.1516C67.4701 52.3406 66.6122 50.6727 65.5161 49.3859C63.3715 46.6695 60.3215 45.9547 56.8901 46.4789C53.4588 47.0031 49.8368 48.5758 46.4532 50.3391L45.0234 51.0539L43.4507 50.1008C41.3062 48.8141 39.3522 47.4797 37.3506 46.2883C35.3967 45.1445 33.395 44.0961 31.4887 43.5242C29.5824 43 27.7715 43.0953 26.1988 43.9055C24.6261 44.7156 23.1487 46.3359 22.1002 48.3375C21.0518 50.2914 20.2416 52.5789 19.6697 54.9141C19.3838 56.1055 19.1931 57.2969 19.0025 58.4883C18.8119 59.6797 18.7166 60.9188 18.6689 62.1578C18.5736 64.636 18.6212 67.1141 18.9072 69.5922C19.2408 72.0703 19.765 74.5008 20.7658 76.8359L20.2416 76.9789Z" fill="#BC111D"/>
<path d="M50.3608 34.9461C52.7437 31.7055 55.8891 28.9891 59.5587 26.9398C63.1807 24.8906 67.3745 23.6039 71.759 23.2703C72.0449 23.2227 72.2832 23.2227 72.5692 23.2227H73.3793C73.9512 23.2227 74.4755 23.2227 75.0474 23.2703L76.7154 23.4133C77.0013 23.4609 77.2873 23.4609 77.5255 23.5086L78.3357 23.6516L80.0037 23.9852C80.528 24.1281 81.0998 24.3187 81.6241 24.5094C82.1483 24.6523 82.7202 24.843 83.2444 25.0812C83.7687 25.3195 84.2929 25.5578 84.8171 25.7961C85.3413 26.0344 85.8179 26.368 86.2945 26.6063L87.057 27.0352C87.2953 27.1781 87.5336 27.3211 87.7719 27.5117C88.6774 28.1789 89.6305 28.8461 90.4407 29.6562C90.8696 30.0375 91.2985 30.4187 91.6798 30.8C92.0611 31.2289 92.4423 31.6578 92.8236 32.0867L93.3954 32.7062C93.5861 32.9445 93.729 33.1828 93.9197 33.3734L94.9205 34.7555L95.1588 35.0891L95.3494 35.4703L95.7783 36.1852L96.5885 37.6148C97.0174 38.6156 97.494 39.6164 97.8753 40.6172L98.3995 42.1422C98.5424 42.6664 98.7807 43.143 98.876 43.6672L99.2573 45.2398C99.3526 45.7641 99.5432 46.2883 99.5909 46.8125C100.353 51.0062 100.353 55.2 99.8768 59.2508C99.4003 63.3016 98.5901 67.257 97.3034 71.0219C96.9698 71.975 96.6838 72.9281 96.3502 73.8336C95.9689 74.7391 95.5877 75.6922 95.2541 76.5976C94.8728 77.5031 94.4439 78.4086 94.015 79.2664C93.5861 80.1719 93.1572 81.0297 92.6806 81.8875L92.2517 81.7445C92.347 80.7437 92.5376 79.7906 92.6329 78.8375C92.7759 77.8844 92.9665 76.9312 93.0618 75.9781C93.3001 74.0719 93.5861 72.1656 93.7291 70.2594C93.9673 68.3531 94.015 66.4945 94.1103 64.5883C94.158 63.6351 94.1103 62.7297 94.158 61.7766V60.3945L94.1103 59.0125L94.0627 57.6305L94.015 56.9633C94.015 56.725 93.9673 56.4867 93.9673 56.2961C93.872 55.3906 93.7767 54.4852 93.6814 53.5797L93.2048 50.9586C93.0142 50.1008 92.7759 49.243 92.5853 48.3851C92.4899 47.9562 92.347 47.575 92.204 47.1461L91.8228 45.907C91.7274 45.4781 91.5368 45.0969 91.3462 44.7156L90.8696 43.5242C90.536 42.7617 90.1071 42.0469 89.7258 41.2844L89.0586 40.2359L88.725 39.7117L88.5821 39.4734L88.3914 39.2352L87.6289 38.282C87.4859 38.1391 87.3906 37.9484 87.2476 37.8055L86.8187 37.3766C86.5328 37.0906 86.2945 36.8047 86.0086 36.4711C85.7226 36.1852 85.389 35.9469 85.1031 35.6609C84.5312 35.0891 83.864 34.6602 83.2444 34.2313C82.9585 33.993 82.5772 33.85 82.2436 33.6117C81.91 33.4211 81.5764 33.1828 81.1952 33.0398C78.3834 31.6102 75.1903 30.7523 71.8543 30.5141C68.5183 30.3234 64.9916 30.657 61.465 31.5148C57.8907 32.325 54.3641 33.6594 50.7421 35.2797L50.3608 34.9461Z" fill="#F0BE2C"/>
<path d="M49.3125 26.3203L55.5557 22.6984L47.4062 15.8359L49.3125 26.3203Z" fill="#F0BE2C"/>
<path d="M63.6098 19.1719L70.7584 16.7891L62.2754 2.53985L63.6098 19.1719Z" fill="#F0BE2C"/>
<path d="M81.2432 16.7891C81.2432 16.7891 87.9152 19.6484 87.9152 20.6016C87.9152 21.5547 89.8215 8.21094 89.8215 8.21094L81.2432 16.7891Z" fill="#F0BE2C"/>
<path d="M94.4922 26.9398C94.4922 26.9398 98.8767 31.5625 98.8767 32.5156C98.8767 33.4687 110.457 20.6492 110.457 20.6492L94.4922 26.9398Z" fill="#F0BE2C"/>
<path d="M101.736 40.6172C101.736 40.6172 104.595 47.2891 104.119 48.7188L114.222 40.6172H101.736Z" fill="#F0BE2C"/>
<path d="M103.737 54.914C103.737 54.914 104.119 61.5859 103.166 63.0156L120.322 59.6797L103.737 54.914Z" fill="#F0BE2C"/>
<path d="M102.498 69.4969C102.498 69.4969 100.782 75.4062 99.8291 76.3594L111.267 75.4062L102.498 69.4969Z" fill="#F0BE2C"/>
</g>
<defs>
<clipPath id="clip0">
<rect width="120" height="113" fill="white"/>
</clipPath>
</defs>
</svg>
