<svg width="13" height="12" viewBox="0 0 13 12" fill="none" xmlns="http://www.w3.org/2000/svg">
<path d="M11.7 12H1.3C0.955218 12 0.624558 11.842 0.380761 11.5607C0.136964 11.2794 0 10.8978 0 10.5V1.43475C0.0145812 1.04834 0.157956 0.683369 0.400191 0.416026C0.642426 0.148682 0.964796 -0.000365429 1.3 6.7284e-07H11.7C12.0448 6.7284e-07 12.3754 0.158036 12.6192 0.43934C12.863 0.720645 13 1.10218 13 1.5V10.5C13 10.8978 12.863 11.2794 12.6192 11.5607C12.3754 11.842 12.0448 12 11.7 12ZM1.3 2.901V10.5H11.7V2.901L6.5 6.9L1.3 2.901ZM1.82 1.5L6.5 5.1L11.18 1.5H1.82Z" fill="white"/>
</svg>
