<svg width="27" height="26" viewBox="0 0 27 26" fill="none" xmlns="http://www.w3.org/2000/svg">
<path d="M23.9034 8.96565L17.4567 8.02872L14.5748 2.18622C14.4961 2.02626 14.3666 1.89677 14.2067 1.81805C13.8055 1.62 13.318 1.78504 13.1174 2.18622L10.2356 8.02872L3.78891 8.96565C3.61117 8.99104 3.44867 9.07483 3.32426 9.20179C3.17385 9.35639 3.09096 9.56437 3.09382 9.78005C3.09668 9.99573 3.18504 10.2014 3.33949 10.352L8.00375 14.8996L6.9018 21.321C6.87595 21.4703 6.89248 21.624 6.94951 21.7644C7.00653 21.9049 7.10178 22.0266 7.22443 22.1156C7.34708 22.2047 7.49225 22.2577 7.64345 22.2684C7.79466 22.2792 7.94587 22.2474 8.07992 22.1766L13.8461 19.1449L19.6123 22.1766C19.7698 22.2604 19.9526 22.2884 20.1278 22.2579C20.5696 22.1817 20.8666 21.7628 20.7905 21.321L19.6885 14.8996L24.3528 10.352C24.4797 10.2276 24.5635 10.0651 24.5889 9.88735C24.6575 9.443 24.3477 9.03167 23.9034 8.96565Z" fill="#F0BE2C" fill-opacity="0.5"/>
</svg>
