<svg width="20" height="20" viewBox="0 0 20 20" fill="none" xmlns="http://www.w3.org/2000/svg">
<path d="M15.8747 4.0918C15.1107 3.32007 14.2007 2.70819 13.1977 2.29184C12.1948 1.87549 11.1189 1.66301 10.033 1.6668C5.48301 1.6668 1.77467 5.37513 1.77467 9.92513C1.77467 11.3835 2.15801 12.8001 2.87467 14.0501L1.70801 18.3335L6.08301 17.1835C7.29134 17.8418 8.64967 18.1918 10.033 18.1918C14.583 18.1918 18.2913 14.4835 18.2913 9.93346C18.2913 7.72513 17.433 5.65013 15.8747 4.0918ZM10.033 16.7918C8.79967 16.7918 7.59134 16.4585 6.53301 15.8335L6.28301 15.6835L3.68301 16.3668L4.37467 13.8335L4.20801 13.5751C3.5228 12.4809 3.15896 11.2162 3.15801 9.92513C3.15801 6.1418 6.24134 3.05846 10.0247 3.05846C11.858 3.05846 13.583 3.77513 14.8747 5.07513C15.5142 5.71177 16.0211 6.46902 16.3658 7.30298C16.7106 8.13695 16.8864 9.03105 16.883 9.93346C16.8997 13.7168 13.8163 16.7918 10.033 16.7918ZM13.7997 11.6585C13.5913 11.5585 12.5747 11.0585 12.3913 10.9835C12.1997 10.9168 12.0663 10.8835 11.9247 11.0835C11.783 11.2918 11.3913 11.7585 11.2747 11.8918C11.158 12.0335 11.033 12.0501 10.8247 11.9418C10.6163 11.8418 9.94967 11.6168 9.16634 10.9168C8.54967 10.3668 8.14134 9.6918 8.01634 9.48346C7.89967 9.27513 7.99967 9.1668 8.10801 9.05846C8.19967 8.9668 8.31634 8.8168 8.41634 8.70013C8.51634 8.58346 8.55801 8.4918 8.62467 8.35846C8.69134 8.2168 8.65801 8.10013 8.60801 8.00013C8.55801 7.90013 8.14134 6.88346 7.97467 6.4668C7.80801 6.0668 7.63301 6.1168 7.50801 6.10846H7.10801C6.96634 6.10846 6.74967 6.15846 6.55801 6.3668C6.37467 6.57513 5.84134 7.07513 5.84134 8.0918C5.84134 9.10846 6.58301 10.0918 6.68301 10.2251C6.78301 10.3668 8.14134 12.4501 10.208 13.3418C10.6997 13.5585 11.083 13.6835 11.383 13.7751C11.8747 13.9335 12.3247 13.9085 12.683 13.8585C13.083 13.8001 13.908 13.3585 14.0747 12.8751C14.2497 12.3918 14.2497 11.9835 14.1913 11.8918C14.133 11.8001 14.008 11.7585 13.7997 11.6585Z" fill="white"/>
</svg>
