<svg width="26" height="18" viewBox="0 0 26 18" fill="none" xmlns="http://www.w3.org/2000/svg">
<g clip-path="url(#clip0)">
<path d="M24.9479 2.97546C24.8045 2.4451 24.5248 1.96159 24.1366 1.57307C23.7484 1.18455 23.2653 0.904581 22.7354 0.761043C20.7953 0.231506 12.9873 0.231506 12.9873 0.231506C12.9873 0.231506 5.17893 0.247535 3.23889 0.777072C2.70895 0.920618 2.22584 1.2006 1.83766 1.58914C1.44948 1.97767 1.16977 2.46121 1.02639 2.99159C0.43957 6.4415 0.211933 11.6984 1.0425 15.0103C1.1859 15.5406 1.46561 16.0241 1.85379 16.4127C2.24198 16.8012 2.72508 17.0811 3.255 17.2247C5.19504 17.7542 13.0032 17.7542 13.0032 17.7542C13.0032 17.7542 20.8113 17.7542 22.7513 17.2247C23.2812 17.0812 23.7644 16.8012 24.1526 16.4127C24.5408 16.0242 24.8205 15.5406 24.9639 15.0103C25.5828 11.5555 25.7736 6.30193 24.9479 2.97556V2.97546Z" fill="#F20003"/>
<path d="M10.502 12.7477L16.9794 8.99282L10.5021 5.23798L10.502 12.7477Z" fill="white"/>
</g>
<defs>
<clipPath id="clip0">
<rect width="25" height="17.5926" fill="white" transform="translate(0.5 0.231506)"/>
</clipPath>
</defs>
</svg>
